<?xml version="1.0" encoding="UTF-8"?><svg id="Warstwa_2" xmlns="http://www.w3.org/2000/svg" xmlns:xlink="http://www.w3.org/1999/xlink" viewBox="0 0 117.6 117.6"><defs><style>.cls-1{fill:#ae9dcc;}.cls-2{fill:#dda778;}.cls-3{fill:#6e7aba;}.cls-4{fill:#f9bb8d;}.cls-5{fill:#ac0f09;}.cls-6{clip-path:url(#clippath);}.cls-7{fill:#432918;}</style><clipPath id="clippath"><path class="cls-1" d="M117.6,58.8c0,32.47-26.33,58.8-58.8,58.8S0,91.27,0,58.8,26.33,0,58.8,0s58.8,26.33,58.8,58.8Z"/></clipPath></defs><g id="Capa_1"><path class="cls-1" d="M117.6,58.8c0,32.47-26.33,58.8-58.8,58.8S0,91.27,0,58.8,26.33,0,58.8,0s58.8,26.33,58.8,58.8Z"/><g class="cls-6"><path class="cls-7" d="M31.08,78.46c4.93,11.13,45.44,12.27,51.22,1.21-6.79-4.62-1.43-22.09-1.43-22.09l1.82-12.94c4.12-16.54-10.12-41.37-24.21-32.61-8.24-8.16-28.66,9.29-23.84,32.4l.09,10.58s4.13,19.55-3.66,23.46Z"/><path class="cls-3" d="M91.24,93.18c-3.7-4.61-32.94-14.72-32.94-14.72,0,0-28.63,11.19-32.94,14.72-4.31,3.54-5.93,25.88-5.93,25.88h76.89s-1.39-21.27-5.08-25.88Z"/><path class="cls-2" d="M67.36,83.85s-1.12,5.43-9.06,5.43-9.06-5.43-9.06-5.43c0,0,2.21-4.39,0-9.54s20.82-6.2,18.12,0c-2.7,6.2,0,9.54,0,9.54Z"/><path class="cls-4" d="M83.9,49.09c0,4.09-2.9,9.71-4.85,9.71s-3.54-3.32-3.54-7.4,2-6.2,3.54-7.4c1.89-1.48,4.85,0,4.85,5.1Z"/><path class="cls-4" d="M33.28,49.09c0,4.09,2.9,9.71,4.85,9.71s3.54-3.32,3.54-7.4-2-6.2-3.54-7.4c-1.89-1.48-4.85,0-4.85,5.1Z"/><path class="cls-4" d="M58.67,16.69c-13.73,0-19.8,9.62-19.8,23.97v17.97c0,12.5,14.44,23.19,19,23.19s20.6-12.5,20.6-24.34v-16.82c0-14.35-6.07-23.97-19.8-23.97Z"/><path class="cls-7" d="M78.47,50.9l.58-7.45c2.99-14.51-6.52-28.55-20.25-28.55s-24.38,15.31-20.7,29.82l.77,8.48s2.65-2.23,3.1-6.25c0,0,15.44-7.84,16.37-22.41,4.92,12.3,17.39,21.24,17.39,21.24.66,4.16,2.74,5.11,2.74,5.11Z"/><path class="cls-5" d="M48.25,42.11c-5.31,0-8.64,1.97-8.64,4.07,0,3.33,1.21,8.74,6.49,9.38,5.1.62,11.76-1.23,11.76-9.75,0-1.97-4.31-3.7-9.62-3.7ZM46.49,54.59c-4.52-.55-5.56-5.17-5.56-8.03,0-1.79,2.84-3.49,7.39-3.49s8.24,1.48,8.24,3.17c0,7.29-5.7,8.87-10.07,8.34Z"/><path class="cls-5" d="M61.21,47.97s-.25-1.3-2-1.3c-1.2,0-1.51,1.42-1.51,1.42l-.64-3.75s.88.75,1.46.75c.29,0,1,.15,1.61,0,.6-.15,1.08-.75,1.08-.75v3.62Z"/><path class="cls-5" d="M40.36,50s-1.91-.14-1.91-1.12v-2.95c0-1.54,1.91-1.05,1.91-1.05v5.12Z"/><path class="cls-5" d="M60.35,45.81c0,8.51,6.66,10.36,11.77,9.75,5.28-.64,6.49-6.04,6.49-9.38,0-2.1-3.32-4.07-8.63-4.07s-9.62,1.73-9.62,3.7ZM61.67,46.25c0-1.69,3.69-3.17,8.24-3.17s7.39,1.69,7.39,3.49c0,2.85-1.04,7.48-5.55,8.03-4.37.53-10.07-1.05-10.07-8.34Z"/><path class="cls-5" d="M77.87,50s1.91-.14,1.91-1.12v-2.95c0-1.54-1.91-1.05-1.91-1.05v5.12Z"/></g></g></svg>