<?xml version="1.0" encoding="UTF-8"?><svg id="Warstwa_2" xmlns="http://www.w3.org/2000/svg" xmlns:xlink="http://www.w3.org/1999/xlink" viewBox="0 0 117.6 117.6"><defs><style>.cls-1{fill:#dda778;}.cls-2{fill:#013958;}.cls-3{fill:#f9b233;}.cls-4{fill:#f9bb8d;}.cls-5{fill:#004b74;}.cls-6{clip-path:url(#clippath);}</style><clipPath id="clippath"><path class="cls-3" d="M117.6,58.8c0,32.47-26.33,58.8-58.8,58.8S0,91.27,0,58.8,26.33,0,58.8,0s58.8,26.32,58.8,58.8Z"/></clipPath></defs><g id="Capa_1"><path class="cls-3" d="M117.6,58.8c0,32.47-26.33,58.8-58.8,58.8S0,91.27,0,58.8,26.33,0,58.8,0s58.8,26.32,58.8,58.8Z"/><g class="cls-6"><path class="cls-5" d="M93.45,94.78c-3.95-4.61-35.2-14.72-35.2-14.72,0,0-30.59,11.19-35.2,14.72-4.61,3.54-6.33,25.88-6.33,25.88h82.16s-1.48-21.27-5.43-25.88Z"/><path class="cls-2" d="M72.48,86.53l-14.23,5.43-14.23-5.43v-7.25s6.49-2.29,14.58-2.29,13.88,2.29,13.88,2.29v7.25Z"/><polygon class="cls-1" points="70.34 79.86 58.25 85.29 46.16 79.86 46.16 70.32 70.34 70.32 70.34 79.86"/><path d="M82.62,51.6v-13.12c0-18.38-7.37-30.71-24.02-30.71s-24.02,12.33-24.02,30.71v13.12s3.67-3.03,7.02-6.83c1.51-1.71-3.64-11.13-2.07-15.09,1.91-4.8,6.79-8.22,6.79-8.22,0,0,2.02,2.34,10.98,3.16,9.18.84,12.37-4.22,12.37-4.22,0,0,.78,20.99,2.83,23.75,4.4,5.91,10.15,7.44,10.15,7.44Z"/><path class="cls-4" d="M83.83,46.09c0,4.09-2.9,9.71-4.85,9.71s-3.54-3.31-3.54-7.4,2-6.2,3.54-7.4c1.89-1.48,4.85,0,4.85,5.1Z"/><path class="cls-4" d="M33.21,46.09c0,4.09,2.9,9.71,4.85,9.71s3.54-3.31,3.54-7.4-2-6.2-3.54-7.4c-1.89-1.48-4.85,0-4.85,5.1Z"/><path class="cls-4" d="M58.6,13.69c-13.73,0-19.8,9.62-19.8,23.97v17.97c0,2.63.96,9.43,1.97,11.51,3.25,6.71,12.88,14.14,17.45,14.14s15.4-7.36,17.97-13.73c.99-2.46,2.22-10,2.22-13.08v-16.82c0-14.35-6.07-23.97-19.8-23.97Z"/><path d="M78.4,47.9l1.23-7.45c.87-16.94-7.31-29.46-21.03-29.46s-21.2,14.33-20.67,29.46l.87,7.45s.03-5.59,2.8-8.55c1.25-1.34-.02-5.46,1.28-8.55,1.57-3.75,5.59-6.41,5.59-6.41,0,0,1.67,1.83,9.04,2.46,7.57.66,10.2-3.29,10.2-3.29,0,0,4.51.34,6.99,6.13,1.6,3.74.37,5.47.25,7.81-.12,2.34,3.45,10.4,3.45,10.4Z"/></g></g></svg>