<?xml version="1.0" encoding="UTF-8"?><svg id="Warstwa_2" xmlns="http://www.w3.org/2000/svg" xmlns:xlink="http://www.w3.org/1999/xlink" viewBox="0 0 117.6 117.6"><defs><style>.cls-1{fill:#ae9dcc;}.cls-2{fill:#dda778;}.cls-3{fill:#f9bb8d;}.cls-4{fill:#e6332a;}.cls-5{clip-path:url(#clippath);}.cls-6{fill:#153c37;}</style><clipPath id="clippath"><path class="cls-1" d="M117.6,58.8c0,32.47-26.33,58.8-58.8,58.8S0,91.27,0,58.8,26.33,0,58.8,0s58.8,26.33,58.8,58.8Z"/></clipPath></defs><g id="Capa_1"><path class="cls-1" d="M117.6,58.8c0,32.47-26.33,58.8-58.8,58.8S0,91.27,0,58.8,26.33,0,58.8,0s58.8,26.33,58.8,58.8Z"/><g class="cls-5"><path class="cls-4" d="M81.18,64.39c.58-7.73,1.52-19.76,1.52-19.76,6.98-15.6-4.22-38.4-13.78-31.89-10.24-13.66-44.62,1.64-34.26,31.68,0,0,.44,10.08-1.37,19.41-2.59,13.35-7.27,27.76-2.95,31.07,6.08,4.66,50.84,5.17,53.57,1.7,4.42-5.64-3.3-24.47-2.73-32.2Z"/><path class="cls-6" d="M91.24,93.18c-3.7-4.61-32.94-14.72-32.94-14.72,0,0-28.63,11.19-32.94,14.72-4.31,3.54-5.93,25.88-5.93,25.88h76.89s-1.39-21.27-5.08-25.88Z"/><path class="cls-2" d="M67.36,83.85s-1.12,5.43-9.06,5.43-9.06-5.43-9.06-5.43c0,0,2.21-4.39,0-9.54-2.21-5.15,20.82-6.2,18.12,0-2.7,6.2,0,9.54,0,9.54Z"/><path class="cls-3" d="M83.9,49.09c0,4.09-2.9,9.71-4.85,9.71s-3.54-3.31-3.54-7.4,2-6.2,3.54-7.4c1.89-1.48,4.85,0,4.85,5.1Z"/><path class="cls-3" d="M33.28,49.09c0,4.09,2.9,9.71,4.85,9.71s3.54-3.31,3.54-7.4-2-6.2-3.54-7.4c-1.89-1.48-4.85,0-4.85,5.1Z"/><path class="cls-3" d="M58.67,16.69c-13.73,0-19.8,9.62-19.8,23.97v17.97c0,12.5,14.44,23.19,19,23.19s20.6-12.5,20.6-24.34v-16.82c0-14.35-6.07-23.97-19.8-23.97Z"/><path class="cls-4" d="M78.47,50.9l.58-7.45c2.99-14.51-6.52-28.54-20.25-28.54s-24.38,15.31-20.7,29.82l.77,8.48s2.65-2.23,3.1-6.25c.35-3.08,1.54-15.52,1.54-15.52l1.51,7.34,16.56,1.09,2.83-5.81,1.14,6.08,5.26.34,3.39-10.17s.47,8.83,1.53,15.48c.66,4.16,2.74,5.11,2.74,5.11Z"/></g></g></svg>