<?xml version="1.0" encoding="UTF-8"?><svg id="Warstwa_2" xmlns="http://www.w3.org/2000/svg" xmlns:xlink="http://www.w3.org/1999/xlink" viewBox="0 0 117.6 117.6"><defs><style>.cls-1{fill:#dda778;}.cls-2{fill:#95a63a;}.cls-3{fill:#f9bb8d;}.cls-4{fill:#331b19;}.cls-5{fill:#d84b58;}.cls-6{clip-path:url(#clippath);}</style><clipPath id="clippath"><path class="cls-2" d="M117.6,58.8c0,32.48-26.33,58.8-58.8,58.8S0,91.27,0,58.8,26.33,0,58.8,0s58.8,26.33,58.8,58.8Z"/></clipPath></defs><g id="Capa_1"><path class="cls-2" d="M117.6,58.8c0,32.48-26.33,58.8-58.8,58.8S0,91.27,0,58.8,26.33,0,58.8,0s58.8,26.33,58.8,58.8Z"/><g class="cls-6"><path class="cls-4" d="M83.95,36.58c-3.12,1.04.36,13.46,3.96,8.48.23,1.84-.65,3.75-2.69,3.65-.49,2.1,2.61,1.7,2.68,4.16.06,2.43-2.21,2.21-2.22,4.44,0,2.12,2.32,3.44,4.19,2.77,2.29-.81,2.47-2.79,2.96-4.54,1.08,1.83,1.39,4.32.28,6.16,1.45.18,2.2-1.12,2.25-2.4.77,1.23.48,3-.27,4.13.56-.12,1.34.17,1.91.08.37,2.15-1.46,4.57-3.16,5.82-1.84,1.36-5.52,1.06-2.48,3.58,2.24,1.86,4.13.79,4.2,4.38.05,2.57-1.17,4.97-3.9,4.89-.03-.18-.09-.34-.18-.43,1.99,2.28,1.44,6.04-.62,8.04.42-1.34.63-3.25-.67-4.08.18,1.04.04,2.11-.99,2.48.42,4.82-8.65,5.07-11.88,5.38-2.46.24-4.73,1.25-7.16,1.49-2.29.23-4.81-.17-7.12-.3-.22-9.98-5.54-19.02-9.11-28.16-1.61-4.13.76-6.6,3.7-9.81,4.23-4.62,8.83-8.63,12.53-13.56l13.82-6.66Z"/><path class="cls-4" d="M32.38,36.58c3.12,1.04-.37,13.46-3.96,8.48-.23,1.84.65,3.75,2.69,3.65.49,2.1-2.61,1.7-2.68,4.16-.06,2.43,2.21,2.21,2.22,4.44,0,2.12-2.32,3.44-4.19,2.77-2.29-.81-2.47-2.79-2.96-4.54-1.08,1.83-1.39,4.32-.28,6.16-1.44.18-2.19-1.12-2.25-2.4-.77,1.23-.48,3,.27,4.13-.56-.12-1.33.17-1.9.08-.37,2.15,1.46,4.57,3.16,5.82,1.84,1.36,5.52,1.06,2.48,3.58-2.24,1.86-4.13.79-4.2,4.38-.05,2.57,1.17,4.97,3.91,4.89.03-.18.09-.34.18-.43-1.99,2.28-1.44,6.04.62,8.04-.42-1.34-.63-3.25.67-4.08-.18,1.04-.04,2.11,1,2.48-.42,4.82,8.65,5.07,11.88,5.38,2.46.24,4.73,1.25,7.16,1.49,2.29.23,4.81-.17,7.11-.3.22-9.98,5.54-19.02,9.11-28.16,1.61-4.13-.76-6.6-3.7-9.81-4.23-4.62-8.84-8.63-12.53-13.56l-13.82-6.66Z"/><path class="cls-5" d="M90.69,93.18c-3.7-4.61-32.94-14.72-32.94-14.72,0,0-28.64,11.19-32.94,14.72-4.31,3.54-5.93,25.88-5.93,25.88h76.89s-1.39-21.27-5.08-25.88Z"/><path class="cls-1" d="M66.82,83.85s-1.12,5.43-9.06,5.43-9.06-5.43-9.06-5.43c0,0,2.21-4.39,0-9.54-2.21-5.15,20.82-6.2,18.12,0-2.7,6.2,0,9.54,0,9.54Z"/><path class="cls-4" d="M76.67,63.5c.58-7.73,5.48-18.87,5.48-18.87,6.98-15.6-4.22-38.4-13.78-31.89-10.24-13.66-44.62,1.64-34.27,31.68,0,0,4.25,10.36,4.66,18.01.41,7.65,14.15,14.99,18.57,15.24,4.41.25,18.77-6.43,19.34-14.16Z"/><path class="cls-3" d="M83.36,49.1c0,4.09-2.9,9.7-4.85,9.7s-3.54-3.31-3.54-7.4,2-6.2,3.54-7.4c1.89-1.48,4.85,0,4.85,5.1Z"/><path class="cls-3" d="M32.73,49.1c0,4.09,2.9,9.7,4.85,9.7s3.54-3.31,3.54-7.4-2-6.2-3.54-7.4c-1.89-1.48-4.85,0-4.85,5.1Z"/><path class="cls-3" d="M58.12,16.69c-13.73,0-19.8,9.62-19.8,23.97v17.97c0,12.5,14.44,23.19,19,23.19s20.6-12.5,20.6-24.34v-16.82c0-14.35-6.07-23.97-19.8-23.97Z"/><path class="cls-4" d="M77.93,50.91l.58-7.45c2.99-14.51-6.52-28.54-20.25-28.54s-24.38,15.31-20.7,29.82l.77,8.48s2.64-2.23,3.1-6.25c.61-5.35,4.5-10.57,12.01-12.01,11.84-2.26,15.17-9.36,15.17-9.36,0,0,2.5,3.58,4.98,9.36,1.6,3.74,0,6.03,1.38,9.77,1.46,3.95,2.96,6.19,2.96,6.19Z"/></g></g></svg>