<?xml version="1.0" encoding="UTF-8"?><svg id="Warstwa_2" xmlns="http://www.w3.org/2000/svg" xmlns:xlink="http://www.w3.org/1999/xlink" viewBox="0 0 117.6 117.6"><defs><style>.cls-1{fill:#dda778;}.cls-2{fill:#f7daa2;}.cls-3{fill:#f9bb8d;}.cls-4{fill:#442928;}.cls-5{fill:#293033;}.cls-6{clip-path:url(#clippath);}</style><clipPath id="clippath"><path class="cls-2" d="M117.6,58.8c0,32.47-26.33,58.8-58.8,58.8S0,91.28,0,58.8,26.33,0,58.8,0s58.8,26.33,58.8,58.8Z"/></clipPath></defs><g id="Capa_1"><path class="cls-2" d="M117.6,58.8c0,32.47-26.33,58.8-58.8,58.8S0,91.28,0,58.8,26.33,0,58.8,0s58.8,26.33,58.8,58.8Z"/><g class="cls-6"><path class="cls-5" d="M91.37,93.18c-3.69-4.61-32.94-14.72-32.94-14.72,0,0-28.63,11.19-32.94,14.72-4.31,3.54-5.93,25.88-5.93,25.88h76.89s-1.39-21.27-5.08-25.88Z"/><path class="cls-1" d="M67.49,83.86s-1.12,5.43-9.06,5.43-9.06-5.43-9.06-5.43c0,0,2.21-4.39,0-9.54-2.21-5.15,20.82-6.2,18.12,0-2.7,6.2,0,9.54,0,9.54Z"/><path class="cls-4" d="M77.34,63.5c.58-7.73,5.48-18.87,5.48-18.87,6.98-15.6-.26-39.12-13.79-31.89-16.74-15.29-43.22,6.09-34.26,31.68,0,0,4.25,10.36,4.66,18.01.41,7.65,14.15,22.94,18.57,23.18,4.41.25,18.77-14.38,19.34-22.1Z"/><path class="cls-3" d="M84.03,49.1c0,4.09-2.9,9.7-4.85,9.7s-3.54-3.32-3.54-7.4,2-6.2,3.54-7.4c1.89-1.48,4.85,0,4.85,5.1Z"/><path class="cls-3" d="M33.41,49.1c0,4.09,2.9,9.7,4.85,9.7s3.54-3.32,3.54-7.4-2-6.2-3.54-7.4c-1.89-1.48-4.85,0-4.85,5.1Z"/><path class="cls-3" d="M58.8,16.69c-13.73,0-19.8,9.62-19.8,23.97v17.97c0,12.5,14.44,23.19,19,23.19s20.6-12.5,20.6-24.34v-16.82c0-14.35-6.07-23.97-19.8-23.97Z"/><path class="cls-4" d="M78.6,50.91l1.23-10.47c0-14.35-7.3-25.04-21.04-25.04s-21.2,12.23-21.2,26.59l1.4,11.23s3.25-2.2,3.1-6.25c-.33-9.21,4.5-10.57,12.01-12.01,11.84-2.26,15.17-9.36,15.17-9.36,0,0,3.88,1.32,6.36,7.1,1.6,3.74-.49,7.81-.62,10.15-.12,2.34,3.58,8.06,3.58,8.06Z"/><path class="cls-4" d="M60.09,74.33c-1.21.08-3.43.29-4.17,0,2.22,3.41,0,8.24,0,8.24h4.17s-1.82-4.12,0-8.24Z"/></g></g></svg>