<?xml version="1.0" encoding="UTF-8"?><svg id="Warstwa_2" xmlns="http://www.w3.org/2000/svg" xmlns:xlink="http://www.w3.org/1999/xlink" viewBox="0 0 117.6 117.6"><defs><style>.cls-1{fill:#003662;}.cls-2{fill:#dda778;}.cls-3{fill:#72bcc6;}.cls-4{fill:#281511;}.cls-5{fill:#f9bb8d;}.cls-6{fill:#ac0f09;}.cls-7{clip-path:url(#clippath);}</style><clipPath id="clippath"><path class="cls-3" d="M117.6,58.8c0,32.47-26.33,58.8-58.8,58.8S0,91.27,0,58.8,26.33,0,58.8,0s58.8,26.33,58.8,58.8Z"/></clipPath></defs><g id="Capa_1"><path class="cls-3" d="M117.6,58.8c0,32.47-26.33,58.8-58.8,58.8S0,91.27,0,58.8,26.33,0,58.8,0s58.8,26.33,58.8,58.8Z"/><g class="cls-7"><path class="cls-1" d="M90.07,93.18c-3.7-4.61-32.94-14.72-32.94-14.72,0,0-28.63,11.19-32.95,14.72-4.31,3.54-5.92,25.88-5.92,25.88h76.89s-1.39-21.27-5.08-25.88Z"/><path class="cls-2" d="M66.2,83.85s-.61,2.94-4.08,4.49c-1.25.56-2.88,7.69-4.98,7.69-2.22,0-3.91-7.17-5.18-7.79-3.29-1.58-3.87-4.39-3.87-4.39,0,0,2.21-4.39,0-9.54-2.21-5.15,20.82-6.2,18.12,0-2.7,6.2,0,9.54,0,9.54Z"/><path class="cls-4" d="M77.81,63.34c1.69-7.57,3.72-18.71,3.72-18.71,6.98-15.6-.26-39.12-13.79-31.89-16.74-15.29-43.22,6.09-34.26,31.68,0,0,1.08,11.71,2.82,19.17,1.96,8.39,16.41,14.62,20.83,14.87,4.41.25,18.89-7.1,20.68-15.11Z"/><path class="cls-5" d="M82.74,49.09c0,4.09-2.9,9.71-4.85,9.71s-3.54-3.32-3.54-7.4,2-6.2,3.54-7.4c1.89-1.48,4.85,0,4.85,5.1Z"/><path class="cls-5" d="M32.11,49.09c0,4.09,2.9,9.71,4.85,9.71s3.54-3.32,3.54-7.4-2-6.2-3.54-7.4c-1.89-1.48-4.85,0-4.85,5.1Z"/><path class="cls-5" d="M57.51,16.69c-13.73,0-19.8,9.62-19.8,23.97v17.97c0,12.5,14.44,23.19,19,23.19s20.6-12.5,20.6-24.34v-16.82c0-14.35-6.07-23.97-19.8-23.97Z"/><path class="cls-4" d="M77.31,50.9l1.24-10.47c0-14.35-7.31-25.04-21.04-25.04s-20.51,10.69-20.51,25.04l.71,12.77s1.63-2.74,1.48-6.79c-.33-9.21,6.12-10.03,13.63-11.47,11.84-2.26,15.17-9.36,15.17-9.36,0,0,3.88,1.31,6.36,7.1,1.6,3.74,1.98,9.47,1.85,11.82-.12,2.34,1.11,6.4,1.11,6.4Z"/><path class="cls-6" d="M45.85,40.43c-5.31,0-8.64,1.97-8.64,4.07,0,3.33,1.22,8.74,6.49,9.38,5.1.62,11.77-1.23,11.77-9.74,0-1.97-4.31-3.7-9.62-3.7ZM44.08,52.92c-4.52-.55-5.56-5.17-5.56-8.02,0-1.79,2.84-3.49,7.39-3.49s8.24,1.48,8.24,3.17c0,7.29-5.7,8.87-10.07,8.34Z"/><path class="cls-6" d="M58.8,46.29s-.25-1.3-2-1.3c-1.2,0-1.51,1.42-1.51,1.42l-.64-3.75s.88.75,1.46.75c.29,0,1.01.15,1.61,0,.6-.15,1.08-.75,1.08-.75v3.62Z"/><path class="cls-6" d="M37.95,48.33s-1.91-.14-1.91-1.12v-2.95c0-1.54,1.91-1.05,1.91-1.05v5.12Z"/><path class="cls-6" d="M57.94,44.14c0,8.51,6.66,10.36,11.77,9.74,5.28-.64,6.49-6.04,6.49-9.38,0-2.1-3.32-4.07-8.64-4.07s-9.62,1.73-9.62,3.7ZM59.26,44.58c0-1.69,3.69-3.17,8.24-3.17s7.39,1.69,7.39,3.49c0,2.85-1.04,7.48-5.55,8.02-4.37.53-10.07-1.05-10.07-8.34Z"/><path class="cls-6" d="M75.46,48.33s1.91-.14,1.91-1.12v-2.95c0-1.54-1.91-1.05-1.91-1.05v5.12Z"/></g></g></svg>